<svg xmlns="http://www.w3.org/2000/svg" version="1.0" fill="currentColor" width="16" height="16" viewBox="0 0 250.000000 250.000000" preserveAspectRatio="xMidYMid meet" class="w-6 h-6 bi bi-folder-fill ng-star-inserted"><g _ngcontent-ng-c1923849724="" transform="translate(0.000000,250.000000) scale(0.100000,-0.100000)" fill="#485569" stroke="none"><path _ngcontent-ng-c1923849724="" d="M305 2329 c-86 -20 -181 -113 -213 -208 -7 -19 -12 -78 -12 -133 0 -80 -4 -106 -21 -139 -30 -61 -33 -120 -15 -316 32 -335 45 -478 61 -668 30 -350 48 -409 148 -485 97 -73 68 -71 1023 -68 l849 3 49 23 c76 35 132 86 161 148 28 58 34 100 60 389 8 94 22 242 30 330 51 546 52 560 16 640 -32 73 -111 147 -181 170 -14 4 -200 11 -415 14 -466 7 -432 -2 -595 157 -72 70 -123 111 -160 128 l-55 26 -345 -1 c-190 -1 -363 -5 -385 -10z m735 -166 c40 -25 136 -120 129 -127 -2 -3 -214 -6 -469 -7 l-465 -1 3 23 c10 64 66 121 132 133 14 2 162 3 330 3 295 -2 306 -3 340 -24z m293 -395 c75 -23 116 -75 290 -378 222 -386 211 -363 211 -440 1 -107 -63 -201 -161 -236 -55 -19 -791 -19 -846 0 -57 21 -100 58 -132 117 -24 45 -30 65 -29 119 0 77 -11 54 211 440 171 297 215 355 285 377 46 15 123 15 171 1z"></path><path _ngcontent-ng-c1923849724="" d="M1175 1641 c-17 -10 -39 -31 -50 -47 -21 -32 -85 -144 -85 -149 0 -2 18 -1 40 2 48 7 117 -17 148 -50 11 -12 58 -87 104 -167 83 -143 85 -145 122 -148 32 -3 43 2 77 36 36 36 39 44 39 93 0 50 -7 67 -83 199 -107 187 -126 215 -158 234 -37 22 -117 20 -154 -3z"></path><path _ngcontent-ng-c1923849724="" d="M1044 1396 c-42 -19 -65 -51 -173 -240 -101 -177 -109 -207 -69 -277 31 -56 67 -69 193 -69 l106 0 -20 26 c-30 38 -44 90 -37 137 4 26 40 100 96 197 81 139 88 156 76 174 -36 55 -114 78 -172 52z"></path><path _ngcontent-ng-c1923849724="" d="M1603 1153 c-6 -15 -23 -43 -37 -60 -42 -50 -101 -63 -292 -63 -180 0 -182 -1 -191 -68 -4 -27 1 -50 16 -80 35 -69 49 -72 303 -72 204 0 226 2 255 20 42 25 63 68 63 127 0 39 -9 64 -45 128 -57 100 -60 103 -72 68z"></path></g></svg>